<svg width="50" height="49" viewBox="0 0 50 49" fill="none" xmlns="http://www.w3.org/2000/svg">
<path d="M25.0738 38.6556C30.2706 35.3988 34.0674 32.0195 36.4641 28.5178C38.5286 25.5059 39.4422 22.6164 39.2049 19.8493C39.11 18.6249 38.7896 17.4985 38.2438 16.4701C37.7455 15.5151 37.0692 14.6825 36.2149 13.9723C35.4081 13.3112 34.5064 12.8337 33.5098 12.5398C32.5131 12.246 31.4927 12.1603 30.4486 12.2827C28.9774 12.4786 27.7671 12.9684 26.818 13.752C26.0349 14.3886 25.4298 15.1967 25.0026 16.1762C24.5755 15.1967 23.9823 14.3886 23.2229 13.752C22.2262 12.9684 20.9923 12.4786 19.5211 12.2827C19.26 12.2337 19.0109 12.2093 18.7736 12.2093C17.7769 12.1848 16.804 12.3623 15.8548 12.7419C14.9056 13.1214 14.0632 13.6785 13.3276 14.4131C12.5445 15.1477 11.9513 15.9926 11.5479 16.9476C11.0733 18.0005 10.8122 19.1269 10.7648 20.3268C10.6699 23.0449 11.6546 25.8732 13.7191 28.8117C16.1633 32.2399 19.9007 35.5212 24.9314 38.6556C24.9552 38.6311 24.9789 38.6189 25.0026 38.6189C25.0501 38.6189 25.0738 38.6311 25.0738 38.6556Z" fill="url(#paint0_linear_677_1575)"/>
<defs>
<linearGradient id="paint0_linear_677_1575" x1="25.0001" y1="12.207" x2="25.0001" y2="38.6556" gradientUnits="userSpaceOnUse">
<stop stop-color="#2B1408"/>
<stop offset="1" stop-color="#2B1408"/>
</linearGradient>
</defs>
</svg>
