<svg width="65" height="82" viewBox="0 0 65 82" fill="none" xmlns="http://www.w3.org/2000/svg">
<path d="M12.6642 3.81395C11.128 3.81395 9.88274 5.06349 9.88274 6.60487C9.88274 8.14625 11.128 9.39579 12.6642 9.39579H39.8842C43.2579 9.39579 45.9927 12.1399 45.9927 15.525C45.9927 18.9101 43.2579 21.6543 39.8842 21.6543H24.1367C23.0871 21.6543 22.2362 20.8005 22.2362 19.7473C22.2362 18.6941 23.0871 17.8403 24.1367 17.8403H39.8842C41.1586 17.8403 42.1917 16.8037 42.1917 15.525C42.1917 14.2463 41.1586 13.2097 39.8842 13.2097H12.6642C9.02879 13.2097 6.08169 10.2526 6.08169 6.60487C6.08169 2.9571 9.02879 0 12.6642 0H20.1456C21.1952 0 22.0461 0.853783 22.0461 1.90698C22.0461 2.96017 21.1952 3.81395 20.1456 3.81395H12.6642Z" fill="#1B0E07"/>
<path fill-rule="evenodd" clip-rule="evenodd" d="M1.90053 22.5023C2.95016 22.5023 3.80105 23.3561 3.80105 24.4093V56.0651C3.80105 64.28 10.438 70.9395 18.6252 70.9395H34.9697C42.3171 70.9395 48.2734 64.9631 48.2734 57.5907V31.6558L11.0231 31.6558C9.97342 31.6558 9.12253 30.802 9.12253 29.7488C9.12253 28.6956 9.97342 27.8419 11.0231 27.8419L48.2734 27.8419V24.4093C48.2734 23.3561 49.1243 22.5023 50.1739 22.5023C51.2235 22.5023 52.0744 23.3561 52.0744 24.4093V34.4945C53.4514 33.4517 54.4359 32.8001 56.5378 32.8001C59.3528 32.8001 61.5164 33.8951 62.9536 35.641C64.3429 37.3286 64.9342 39.4733 64.9917 41.4588C65.157 47.1707 62.8406 51.4392 59.5394 54.3072C56.903 56.5975 53.9855 58.1246 52.0228 58.9345C51.3396 67.7852 43.9657 74.7535 34.9697 74.7535H18.6252C8.33877 74.7535 0 66.3864 0 56.0651V24.4093C0 23.3561 0.850895 22.5023 1.90053 22.5023ZM52.0744 54.7209V42.5281C52.0744 39.3802 53.3564 36.614 56.5378 36.614C58.2822 36.614 59.3472 37.2489 60.0231 38.0699C60.7468 38.9491 61.1528 40.2079 61.1922 41.5695C61.3119 45.7063 59.8768 48.9692 57.0514 51.4238C55.3804 52.8755 53.5647 53.9732 52.0744 54.7209Z" fill="#1B0E07"/>
<path d="M12.9236 55.6837C12.9236 54.6305 12.0727 53.7767 11.0231 53.7767C9.97342 53.7767 9.12253 54.6305 9.12253 55.6837C9.12253 61.1603 13.5472 65.6 19.0053 65.6H23.1864C24.2361 65.6 25.087 64.7462 25.087 63.693C25.087 62.6398 24.2361 61.786 23.1864 61.786H19.0053C15.6464 61.786 12.9236 59.0539 12.9236 55.6837Z" fill="#1B0E07"/>
<path d="M23.1864 38.3302C24.2361 38.3302 25.087 39.184 25.087 40.2372V45.1953C25.087 46.2485 24.2361 47.1023 23.1864 47.1023C22.1368 47.1023 21.2859 46.2485 21.2859 45.1953V40.2372C21.2859 39.184 22.1368 38.3302 23.1864 38.3302Z" fill="#1B0E07"/>
<path d="M39.721 38.3302C40.7706 38.3302 41.6215 39.184 41.6215 40.2372V47.4837C41.6215 48.5369 40.7706 49.3907 39.721 49.3907C38.6714 49.3907 37.8205 48.5369 37.8205 47.4837V40.2372C37.8205 39.184 38.6714 38.3302 39.721 38.3302Z" fill="#1B0E07"/>
<path d="M14.8241 78.186C13.7745 78.186 12.9236 79.0398 12.9236 80.093C12.9236 81.1462 13.7745 82 14.8241 82H36.8702C37.9198 82 38.7707 81.1462 38.7707 80.093C38.7707 79.0398 37.9198 78.186 36.8702 78.186H14.8241Z" fill="#1B0E07"/>
</svg>
